#!OML:ASF F:\VICON\USERDATA\INSTALL\rory3\rory3.ASF
:FULLY-SPECIFIED
:DEGREES
65
root -0.27312 18.1667 0.646687 4.86679 -2.27424 -0.676657
lowerback 13.8787 -1.78276 -2.73688
upperback -1.33959 -2.53597 3.38587
thorax -8.98052 -0.992118 5.75156
lowerneck -20.8819 -2.01094 -1.61847
upperneck 15.2049 -2.55933 1.52429
head 8.18069 -1.14547 0.444718
rclavicle 2.28602e-015 1.11319e-014
rhumerus -65.2619 3.19545 -92.4858
rradius 109.041
rwrist -7.14926
rhand -14.4144 39.1685
rfingers 7.12502
rthumb 11.7295 9.51685
lclavicle 2.28602e-015 1.11319e-014
lhumerus -34.5656 -23.4376 97.7995
lradius 113.951
lwrist 36.4918
lhand -22.2801 0.0933362
lfingers 7.12502
lthumb 4.13831 30.0329
rfemur -45.5556 1.42566 25.2466
rtibia 42.811
rfoot 0.930651 0.968247
rtoes -16.8861
lfemur 19.005 -3.73567 -28.0409
ltibia 26.9526
lfoot 25.6428 -15.0264
ltoes -11.3106
66
root -0.26213 18.1788 1.17375 5.13386 -2.32016 -0.27261
lowerback 13.7493 -1.8102 -3.06152
upperback -1.3276 -2.62938 3.34756
thorax -8.87019 -1.02661 5.90612
lowerneck -21.2835 -2.04023 -1.59322
upperneck 15.2731 -2.57753 1.4061
head 8.27012 -1.16251 0.395109
rclavicle 1.10325e-014 5.56597e-015
rhumerus -64.7634 2.23086 -92.1644
rradius 109.055
rwrist -6.55601
rhand -14.3528 39.1497
rfingers 7.12502
rthumb 11.7889 9.50151
lclavicle 1.10325e-014 5.56597e-015
lhumerus -35.0143 -24.229 98.0612
lradius 112.952
lwrist 36.4009
lhand -21.9571 0.243729
lfingers 7.12502
lthumb 4.45024 30.177
rfemur -44.9266 1.28036 25.1192
rtibia 39.4595
rfoot 0.798953 0.67394
rtoes -17.5276
lfemur 18.4531 -4.06162 -28.5708
ltibia 29.2913
lfoot 24.4984 -14.7014
ltoes -9.89127
67
root -0.250687 18.1784 1.69753 5.07568 -2.36868 0.196845
lowerback 13.9607 -1.80812 -3.4145
upperback -1.28361 -2.69749 3.26832
thorax -8.92338 -1.04276 6.04648
lowerneck -21.2322 -2.14009 -1.71415
upperneck 15.0094 -2.66991 1.38897
head 8.17501 -1.21639 0.39809
rclavicle -4.96962e-015 4.53229e-014
rhumerus -64.4287 1.33877 -91.8534
rradius 109.178
rwrist -5.91096
rhand -14.4443 39.3445
rfingers 7.12502
rthumb 11.7007 9.69122
lclavicle -4.96962e-015 4.53229e-014
lhumerus -35.6228 -24.8513 98.4057
lradius 111.817
lwrist 36.6778
lhand -22.1232 1.46983
lfingers 7.12502
lthumb 4.28984 31.4064
rfemur -44.0605 0.979418 24.9685
rtibia 36.8757
rfoot 0.631291 0.480816
rtoes -18.7431
lfemur 17.7889 -4.22852 -29.1355
ltibia 32.2128
lfoot 23.6197 -13.9603
ltoes -4.56239
68
root -0.238106 18.1433 2.21608 5.00342 -2.55435 0.599521
lowerback 14.0767 -1.71874 -3.68822
upperback -1.22851 -2.63807 3.15144
thorax -8.93082 -1.0043 6.06788
lowerneck -20.9209 -2.21673 -1.92926
upperneck 14.599 -2.75115 1.60417
head 7.99187 -1.24784 0.498564
rclavicle 1.98785e-016 4.77083e-015
rhumerus -64.1391 0.372844 -91.5978
rradius 109.378
rwrist -5.54282
rhand -14.4076 39.1353
rfingers 7.12502
rthumb 11.736 9.48402
lclavicle 1.98785e-016 4.77083e-015
lhumerus -36.3443 -25.4272 98.8907
lradius 110.57
lwrist 36.7859
lhand -24.5741 1.3998
lfingers 7.12502
lthumb 1.92287 31.3709
rfemur -43.3815 0.674746 24.9802
rtibia 35.082
rfoot 0.616407 0.470013
rtoes -19.6497
lfemur 17.3436 -4.18862 -29.5863
ltibia 35.6048
lfoot 21.9464 -14.1448
ltoes -9.80059
69
root -0.22091 18.1064 2.72963 4.83119 -2.49399 0.944872
lowerback 14.4445 -1.67543 -3.77419
upperback -1.12475 -2.61759 2.99962
thorax -9.0334 -0.991707 5.96392
lowerneck -21.018 -2.29263 -1.99214
upperneck 14.3337 -2.86576 1.79469
head 7.92526 -1.28605 0.557813
rclavicle 1.55052e-014 -3.26007e-014
rhumerus -63.4712 -0.663357 -91.4262
rradius 109.358
rwrist -5.40251
rhand -14.2044 38.7644
rfingers 7.12502
rthumb 11.932 9.12449
lclavicle 1.55052e-014 -3.26007e-014
lhumerus -37.0098 -25.9349 99.3327
lradius 109.348
lwrist 36.3794
lhand -25.9676 0.375141
lfingers 7.12502
lthumb 0.577018 30.3541
rfemur -42.7155 0.160845 25.0806
rtibia 34.0742
rfoot 0.650204 0.517972
rtoes -21.9806
lfemur 16.5718 -4.31601 -29.8664
ltibia 39.2704
lfoot 20.9787 -13.3623
ltoes -8.73645
70
root -0.203434 18.0643 3.251 4.84409 -2.5342 1.10972
lowerback 14.4219 -1.65253 -3.71234
upperback -0.911115 -2.58169 2.92259
thorax -8.7967 -0.992867 5.82522
lowerneck -21.2667 -2.36323 -2.13399
upperneck 13.9961 -2.95506 2.04311
head 7.86182 -1.31001 0.651226
rclavicle 1.77912e-014 1.82882e-014
rhumerus -62.3772 -1.51036 -91.369
rradius 109.181
rwrist -5.33584
rhand -14.2576 38.9101
rfingers 7.12502
rthumb 11.8807 9.26716
lclavicle 1.77912e-014 1.82882e-014
lhumerus -37.0666 -26.2657 99.5102
lradius 107.703
lwrist 35.9222
lhand -22.2092 3.84647
lfingers 7.12502
lthumb 4.20674 33.7847
rfemur -42.3044 -0.129516 25.3209
rtibia 33.7487
rfoot 0.885319 0.461097
rtoes -22.5966
lfemur 15.409 -4.27263 -29.8499
ltibia 43.1881
lfoot 19.095 -13.476
ltoes -14.0105
71
root -0.186229 18.0133 3.77882 4.61573 -3.06368 1.06948
lowerback 14.5001 -1.49138 -3.65406
upperback -0.640181 -2.35621 2.9477
thorax -8.57436 -0.899596 5.76497
lowerneck -21.2367 -2.38119 -2.32272
upperneck 13.6812 -2.94778 2.20468
head 7.75683 -1.30174 0.737594
rclavicle 2.88238e-015 3.18055e-014
rhumerus -61.2782 -2.02598 -91.3175
rradius 108.877
rwrist -5.32904
rhand -14.2317 39.0012
rfingers 7.12502
rthumb 11.9056 9.35975
lclavicle 2.88238e-015 3.18055e-014
lhumerus -37.3463 -26.2631 99.9209
lradius 105.958
lwrist 35.6621
lhand -22.9293 1.22405
lfingers 7.12502
lthumb 3.51141 31.1749
rfemur -41.5455 -0.136934 25.8167
rtibia 33.8766
rfoot 1.24683 0.445079
rtoes -22.2015
lfemur 14.4799 -3.71885 -29.6963
ltibia 47.2501
lfoot 16.1851 -14.042
ltoes -26.0884
72
root -0.174013 17.9626 4.29868 4.36531 -3.43942 0.907584
lowerback 14.9514 -1.37656 -3.60736
upperback -0.611228 -2.1957 3.06758
thorax -8.81655 -0.812204 5.8592
lowerneck -20.8184 -2.29021 -2.37061
upperneck 13.3642 -2.79532 2.10515
head 7.57703 -1.24623 0.735523
rclavicle 4.47266e-015 -2.8625e-014
rhumerus -60.5162 -2.26101 -91.3004
rradius 108.526
rwrist -5.20288
rhand -14.3839 38.8938
rfingers 7.12502
rthumb 11.7589 9.24385
lclavicle 4.47266e-015 -2.8625e-014
lhumerus -38.3196 -25.9289 100.697
lradius 104.495
lwrist 35.5859
lhand -24.1053 0.674707
lfingers 7.12502
lthumb 2.37564 30.6412
rfemur -40.7183 -0.274983 26.4367
rtibia 34.4176
rfoot 1.51015 0.387411
rtoes -21.3666
lfemur 13.1705 -3.27096 -29.2692
ltibia 51.3895
lfoot 18.2809 -14.7222
ltoes -19.1358
73
root -0.158388 17.9047 4.82136 4.13808 -3.68146 0.274722
lowerback 15.4166 -1.3002 -2.95169
upperback -0.593436 -1.96818 3.24735
thorax -9.1049 -0.718237 5.65398
lowerneck -20.5777 -2.22646 -2.33643
upperneck 13.2413 -2.70515 2.0113
head 7.4922 -1.21298 0.712242
rclavicle -4.52235e-014 5.32743e-014
rhumerus -59.7331 -2.40767 -91.2985
rradius 108.166
rwrist -5.21297
rhand -14.8153 38.9805
rfingers 7.12502
rthumb 11.3429 9.30722
lclavicle -4.52235e-014 5.32743e-014
lhumerus -39.063 -25.6124 101.252
lradius 102.841
lwrist 35.3374
lhand -24.7142 1.22645
lfingers 7.12502
lthumb 1.78758 31.1987
rfemur -39.8362 -0.396554 27.4935
rtibia 35.3467
rfoot 1.66774 0.762934
rtoes -21.0751
lfemur 11.763 -2.78737 -28.1432
ltibia 55.5782
lfoot 19.6459 -14.7493
ltoes -12.3078
74
root -0.137998 17.8282 5.36239 3.87757 -4.02124 -0.132543
lowerback 15.5721 -1.2144 -2.37392
upperback -0.466329 -1.74626 3.29363
thorax -9.0946 -0.640112 5.32547
lowerneck -20.4448 -2.21581 -2.28489
upperneck 13.273 -2.69353 1.92483
head 7.47835 -1.21418 0.67768
rclavicle -3.39922e-014 -7.95139e-016
rhumerus -58.7917 -2.50564 -91.3967
rradius 107.717
rwrist -5.19474
rhand -15.0201 39.0026
rfingers 7.12502
rthumb 11.1454 9.31855
lclavicle -3.39922e-014 -7.95139e-016
lhumerus -39.5403 -25.1075 101.488
lradius 100.939
lwrist 34.155
lhand -24.6159 0.709615
lfingers 7.12502
lthumb 1.88256 30.6811
rfemur -38.9703 -0.567616 28.2495
rtibia 36.7605
rfoot 1.63594 2.04656
rtoes -8.87472
lfemur 10.5703 -2.03643 -27.1698
ltibia 59.7064
lfoot 18.911 -14.6944
ltoes -14.1294
75
root -0.130999 17.7356 5.88588 3.64552 -4.37554 -0.525816
lowerback 15.7468 -1.08397 -2.03508
upperback -0.333346 -1.50511 3.37829
thorax -9.07996 -0.540275 5.17186
lowerneck -20.0978 -2.25245 -2.18388
upperneck 13.1175 -2.74705 1.75795
head 7.36626 -1.25365 0.602967
rclavicle 2.27608e-014 -1.27222e-014
rhumerus -57.8027 -2.47096 -91.5525
rradius 107.349
rwrist -5.2602
rhand -14.8375 39.004
rfingers 7.12502
rthumb 11.3214 9.3296
lclavicle 2.27608e-014 -1.27222e-014
lhumerus -40.0697 -24.4117 101.658
lradius 99.1076
lwrist 33.0481
lhand -23.9757 0.0569031
lfingers 7.12502
lthumb 2.50079 30.022
rfemur -38.2919 -0.563867 28.9576
rtibia 38.7045
rfoot 0.389784 4.19244
rtoes 1.62739
lfemur 9.25836 -1.12387 -25.9638
ltibia 63.8777
lfoot 19.7881 -15.803
ltoes -9.85856
76
root -0.128958 17.635 6.3913 3.39107 -4.59484 -0.884038
lowerback 16.3002 -0.971097 -1.78247
upperback -0.389842 -1.30106 3.44693
thorax -9.48139 -0.440074 5.08157
lowerneck -19.5835 -2.27153 -2.24982
upperneck 13.0575 -2.78474 1.86777
head 7.26444 -1.26795 0.649681
rclavicle 1.20265e-014 1.11319e-014
rhumerus -56.9612 -2.29527 -91.805
rradius 106.929
rwrist -5.18291
rhand -14.8429 39.1733
rfingers 7.12502
rthumb 11.3162 9.49854
lclavicle 1.20265e-014 1.11319e-014
lhumerus -40.8475 -23.6191 101.935
lradius 97.4536
lwrist 32.5557
lhand -23.7515 -0.105245
lfingers 7.12502
lthumb 2.71733 29.8572
rfemur -37.6071 -0.487772 29.5567
rtibia 41.1998
rfoot -1.8255 4.61409
rtoes 9.2671
lfemur 7.78017 -0.189599 -24.6199
ltibia 68.0822
lfoot 19.412 -16.8818
ltoes -11.1527
77
root -0.1165 17.5265 6.90295 3.19593 -4.56329 -1.00494
lowerback 16.8892 -0.931482 -1.52116
upperback -0.480921 -1.19884 3.40365
thorax -9.93325 -0.391757 4.88771
lowerneck -19.5764 -2.27494 -2.3212
upperneck 13.2493 -2.80897 2.06803
head 7.33126 -1.26332 0.723694
rclavicle -6.26172e-015 5.56597e-015
rhumerus -55.9529 -2.08499 -92.0514
rradius 106.464
rwrist -5.26756
rhand -14.6092 39.1519
rfingers 7.12502
rthumb 11.5416 9.48963
lclavicle -6.26172e-015 5.56597e-015
lhumerus -41.6177 -22.8196 102.302
lradius 95.9337
lwrist 32.0879
lhand -24.1574 0.177936
lfingers 7.12502
lthumb 2.32538 30.145
rfemur -36.8693 -0.589284 29.8133
rtibia 44.0101
rfoot -5.05592 3.6552
rtoes 12.1315
lfemur 5.78035 0.524195 -23.531
ltibia 72.32
lfoot 20.0765 -15.5621
ltoes -7.04845
78
root -0.107588 17.4161 7.41207 3.07589 -4.624 -1.08954
lowerback 17.3898 -0.834198 -1.34456
upperback -0.491855 -1.03734 3.34767
thorax -10.2496 -0.317256 4.70468
lowerneck -19.9303 -2.30978 -2.22351
upperneck 13.5126 -2.87619 2.04428
head 7.47709 -1.28909 0.688379
rclavicle -2.60408e-014 -4.92986e-014
rhumerus -54.9662 -1.67694 -92.3998
rradius 106.295
rwrist -5.65718
rhand -14.5572 38.946
rfingers 7.12502
rthumb 11.5918 9.28664
lclavicle -2.60408e-014 -4.92986e-014
lhumerus -42.3786 -22.0142 102.647
lradius 94.5644
lwrist 31.4578
lhand -24.8126 0.0664268
lfingers 7.12502
lthumb 1.6926 30.0395
rfemur -36.2426 -0.234003 29.9198
rtibia 46.7283
rfoot -8.19788 2.52551
rtoes 12.1937
lfemur 3.5534 1.44108 -22.357
ltibia 76.3839
lfoot 20.1435 -13.4721
ltoes -2.29252
79
root -0.107831 17.3101 7.92677 3.06465 -5.04748 -1.3882
lowerback 17.4856 -0.596623 -1.08244
upperback -0.362338 -0.675774 3.29181
thorax -10.1957 -0.16391 4.39825
lowerneck -20.5104 -2.31201 -1.94202
upperneck 13.9398 -2.93173 1.91326
head 7.7109 -1.30748 0.586519
rclavicle -1.59028e-015 -2.3059e-014
rhumerus -53.6311 -1.22719 -92.8783
rradius 105.94
rwrist -6.31089
rhand -14.7554 39.1509
rfingers 7.12502
rthumb 11.4007 9.48079
lclavicle -1.59028e-015 -2.3059e-014
lhumerus -42.883 -21.3031 102.695
lradius 93.2394
lwrist 31.2031
lhand -24.9479 -0.00716794
lfingers 7.12502
lthumb 1.56192 29.9669
rfemur -35.6581 0.668695 30.306
rtibia 49.1854
rfoot -11.0985 1.31923
rtoes 10.6985
lfemur 1.45843 2.74508 -20.8495
ltibia 80.1924
lfoot 18.4867 -11.9236
ltoes -1.8331
